<svg xmlns="http://www.w3.org/2000/svg" viewBox="0 0 24 24">
  <path d="M15.852 8.981h-4.588V0h4.588c2.476 0 4.49 2.014 4.49 4.49s-2.014 4.491-4.49 4.491z" fill="#F24E1E"/>
  <path d="M12.735 16.49H8.148c-2.476 0-4.49-2.014-4.49-4.49s2.014-4.49 4.49-4.49h4.588v8.98z" fill="#0ACF83"/>
  <path d="M8.172 24c-2.489 0-4.515-2.014-4.515-4.49s2.014-4.49 4.49-4.49h4.588v4.441c0 2.503-2.047 4.539-4.563 4.539z" fill="#A259FF"/>
  <path d="M12.735 0v8.981h-4.58c-2.476 0-4.49-2.014-4.49-4.49S5.672 0 8.148 0h4.587z" fill="#F24E1E"/>
  <path d="M15.755 16.49h-0.098c-2.476 0-4.49-2.014-4.49-4.49s2.014-4.49 4.49-4.49h0.098c2.476 0 4.49 2.014 4.49 4.49s-2.014 4.49-4.49 4.49z" fill="#1ABCFE"/>
</svg>
