<svg xmlns="http://www.w3.org/2000/svg" xmlns:xlink="http://www.w3.org/1999/xlink" width="164" height="37" viewBox="0 0 164 37">
  <defs>
    <clipPath id="clip-Artboard_2">
      <rect width="164" height="37"/>
    </clipPath>
  </defs>
  <g id="Artboard_2" data-name="Artboard – 2" clip-path="url(#clip-Artboard_2)">
    <rect width="164" height="37" fill="#fff"/>
    <g id="invisionFreehand" transform="translate(-254.3 -254.971)">
      <path id="Path_1509" data-name="Path 1509" d="M573.933,312.438h-9.807v5.234h7.334v3.638h-7.334v8.542H560.2V308.8h13.733Z" transform="translate(-261.91 -46.076)"/>
      <path id="Path_1510" data-name="Path 1510" d="M662.08,353.934v2.315h.058a4.077,4.077,0,0,1,3.768-2.56,2.244,2.244,0,0,1,1.064.216v3.638a2.573,2.573,0,0,0-1.035-.173c-2.056,0-3.6,1.107-3.6,4.487v6.428H658.6V353.948h3.48Z" transform="translate(-346.16 -84.509)"/>
      <path id="Path_1511" data-name="Path 1511" d="M728.321,367.543a7.281,7.281,0,0,1-7.521-7.578c0-4.357,3.006-7.665,7.161-7.665,4.012,0,7.1,2.862,7.133,7.78v.906H724.6a3.8,3.8,0,0,0,3.739,3.451,3.289,3.289,0,0,0,3.063-1.8l3.135.906A6.364,6.364,0,0,1,728.321,367.543ZM724.64,358.4h6.572a3.053,3.053,0,0,0-3.178-3.192c-1.769.014-3.005,1.064-3.394,3.192Z" transform="translate(-399.415 -83.321)"/>
      <path id="Path_1512" data-name="Path 1512" d="M835.121,367.543a7.281,7.281,0,0,1-7.521-7.578c0-4.357,3.005-7.665,7.161-7.665,4.012,0,7.1,2.862,7.133,7.78v.906H831.4a3.8,3.8,0,0,0,3.739,3.451,3.289,3.289,0,0,0,3.063-1.8l3.121.906A6.307,6.307,0,0,1,835.121,367.543ZM831.44,358.4h6.572a3.053,3.053,0,0,0-3.178-3.192C833.079,355.219,831.828,356.269,831.44,358.4Z" transform="translate(-490.857 -83.321)"/>
      <path id="Path_1513" data-name="Path 1513" d="M944.039,308.8v8.3a5.2,5.2,0,0,1,4.127-2.042c3.063,0,4.961,2.1,4.961,5.623v9.175h-3.739v-8.484c0-1.984-.863-2.977-2.373-2.977a3.019,3.019,0,0,0-2.977,3.221v8.24H940.3V308.8Z" transform="translate(-587.35 -46.076)"/>
      <path id="Path_1514" data-name="Path 1514" d="M1049.446,367.254v-1.409h-.115a4.994,4.994,0,0,1-4.07,1.841c-2.9,0-4.961-1.869-4.961-4.472,0-2.977,2.286-4.746,6.068-4.746a6.972,6.972,0,0,1,2.9.546v-1.05a2.218,2.218,0,0,0-2.4-2.459,2.425,2.425,0,0,0-2.4,1.409l-3.739-.3c.834-2.617,3.149-4.113,6.385-4.113,3.768,0,5.882,2.042,5.882,5.709v9.074Zm-3.121-2.517c1.611,0,3.005-.992,3.005-2.1V361.7a4.481,4.481,0,0,0-2.56-.633c-1.726,0-2.7.719-2.7,1.841S1044.9,364.738,1046.325,364.738Z" transform="translate(-672.97 -83.492)"/>
      <path id="Path_1515" data-name="Path 1515" d="M1151.489,367.083V358.6c0-1.984-.863-2.977-2.373-2.977a3.019,3.019,0,0,0-2.977,3.221v8.24H1142.4V352.746h3.48v1.812h.057a5.035,5.035,0,0,1,4.343-2.258c3.063,0,4.961,2.071,4.961,5.623V367.1h-3.753Z" transform="translate(-760.388 -83.321)"/>
      <path id="Path_1516" data-name="Path 1516" d="M1250.7,315.055a4.561,4.561,0,0,1,4.185,2.229V308.8h3.739v21.053h-3.451v-2.042h-.086a4.878,4.878,0,0,1-4.487,2.5c-3.768,0-6.6-3.063-6.6-7.607C1244.014,318.118,1246.948,315.055,1250.7,315.055Zm.719,11.936c2.258,0,3.6-1.8,3.6-4.3,0-2.531-1.337-4.3-3.6-4.3s-3.624,1.841-3.624,4.3,1.38,4.3,3.624,4.3Z" transform="translate(-847.377 -46.076)"/>
      <rect id="Rectangle_899" data-name="Rectangle 899" width="37" height="37" transform="translate(254.3 254.971)" fill="#f06"/>
      <path id="Path_1517" data-name="Path 1517" d="M330.842,313.01a2.107,2.107,0,1,0-2.143-2.1,2.121,2.121,0,0,0,2.143,2.1Z" transform="translate(-63.7 -46.073)" fill="#fff"/>
      <path id="Path_1518" data-name="Path 1518" d="M307.748,359.492a7.316,7.316,0,0,0-.187,1.582,2.826,2.826,0,0,0,3.149,3.092,5,5,0,0,0,4.242-2.747l-.633,2.531h3.523l2.013-8.067c.5-2.042,1.481-3.106,2.962-3.106a1.753,1.753,0,0,1,1.884,1.913,3.8,3.8,0,0,1-.158,1.136l-1.035,3.71a5.8,5.8,0,0,0-.216,1.567,2.871,2.871,0,0,0,3.207,3.049c1.855,0,3.336-1.194,4.156-4.055l-1.38-.532c-.69,1.913-1.294,2.258-1.754,2.258s-.719-.316-.719-.935a4.478,4.478,0,0,1,.158-.978l1.007-3.609a7.732,7.732,0,0,0,.345-2.286c0-2.7-1.639-4.113-3.609-4.113-1.855,0-3.739,1.668-4.688,3.437l.69-3.164h-5.378l-.762,2.79h2.517l-1.553,6.2c-1.222,2.7-3.451,2.747-3.739,2.689-.46-.1-.748-.273-.748-.877a6.1,6.1,0,0,1,.216-1.438l2.358-9.362h-5.968l-.748,2.79h2.488Z" transform="translate(-45.036 -81.266)" fill="#fff"/>
    </g>
  </g>
</svg>
